<svg version="1.1" xmlns="http://www.w3.org/2000/svg" viewBox="-281.2 -975.2 4210.495703125 1311.4"><desc>Created with Snap</desc><defs></defs><g><g><g transform="matrix(1,0,0,-1,0,0)"><g transform="matrix(1,0,0,1,0,0)"><path d="M110 16Q69 -1 55 -1Q42 -1 37 2Q32 5 26 16Q26 49 28 99Q31 149 33 206Q35 263 35 321Q35 379 29 427Q29 459 72 459Q82 459 87 423Q93 387 95 367Q98 347 100 338Q126 385 203 412Q244 425 280 425Q316 425 343 416Q371 408 390 385Q410 363 410 326Q436 375 527 414Q610 451 676 451Q771 451 769 379L790 7Q790 2 761 0Q705 -4 705 10Q704 30 704 50L709 211Q709 324 687 390Q621 385 585 368Q550 352 523 327Q496 303 475 262Q428 170 428 18Q422 -3 389 -3Q367 -3 353 4Q339 12 342 18Q361 124 361 183Q361 230 351 272Q342 315 328 370Q184 370 134 255Q112 204 109 159Q107 115 107 83Q107 52 110 16Z" fill="#435e55" style=""></path></g><g transform="matrix(1,0,0,1,797,0)"><g transform="matrix(0.9249,0,0,0.9249,-55.9813,556.9912)"><g transform="matrix(1,0,0,-1,0,0)">
<g id="gSkv8ca3dy2d6">
</g>
<g id="gSkv8ca3dy2d7">
</g>
<g id="gSkv8ca3dy2d8">
</g>
<g id="gSkv8ca3dy2d9">
</g>
<g>
	<path d="M558.6,219.4c-28.7-40.1-68.7-70.8-115-87.9c-47.7-17.6-101.1-19.4-150-5.6c-47.1,13.3-89.9,41.2-121,79
		c-31.8,38.8-51.1,86.2-55.1,136.3c-4,50.3,8.1,101.6,34.3,144.7c25.2,41.6,63.1,75.7,107.6,95.7c46.8,21.1,99.1,27,149.4,16.9
		c48.2-9.6,93.1-34.6,127-70.1c33.9-35.4,57-81.2,64.5-129.7c2-12.8,3.1-25.7,3.1-38.6C603.2,309.9,587.8,260.2,558.6,219.4z
		 M542.1,489.5c-25.7,36.4-63.1,65-105,80.3c-44.2,16.1-92.9,18-138.1,5.1c-43.6-12.3-82.4-38.1-111.4-72.9
		c-28.9-34.7-46.7-78.8-50.2-123.8c-3.6-46.8,7.3-93.8,31.6-133.9c23.4-38.5,58.2-69.2,99.2-88c42-19.2,90.6-24.5,135.9-15.3
		c44.8,9.1,86,31.8,117.5,64.8S573.8,281,580.9,326c1.8,11.2,2.5,22.6,2.5,34C583.2,406.4,568.8,451.5,542.1,489.5z" fill="#435e55" style=""></path>
	<path d="M278.66,486.83c0,0.01,0,0.02-0.01,0.03c0.02-0.03,0.04-0.06,0.04-0.06C278.68,486.8,278.68,486.82,278.66,486.83z" fill="#435e55" style=""></path>
	<path d="M492.4,313.1c-18.6-2.7-37.2-5.4-55.8-8.1c-6.7-1-13.5-1.8-20.2-2.9c-1.5-0.2-2.2-0.5-3.1-1.6c-1.2-1.6-1.9-3.9-2.8-5.7
		c-8.8-17.7-17.5-35.5-26.3-53.2c-1.9-3.9-3.8-7.8-5.8-11.7c-0.2-0.4-0.3-0.7-0.6-1.1c-0.4-0.8-0.9-1.5-1.4-2.1
		c-8.7-12-27.4-11.1-34.8,2.4c-2.9,5.4-5.5,11.1-8.2,16.6c-8.5,17.3-17,34.5-25.5,51.8c-0.5,1-1,2.8-1.7,3.6c-1,1.1-2.9,1.1-4.4,1.3
		c-7.9,1.1-15.8,2.3-23.7,3.4c-17.5,2.5-35,4.8-52.4,7.6c-14.1,2.3-21.5,18.5-14.2,30.8c2.9,4.8,8,8.7,11.9,12.5
		c14.3,13.9,28.5,27.8,42.8,41.7c1.8,1.7,3.5,3.6,5.3,5.2c0.2,0.2,0.5,0.6,0.8,0.8c0,0,0.1,0,0.1,0.1c-1.2,6.5-2.2,13-3.3,19.4
		c-3.2,18.7-6.4,37.4-9.6,56c-0.4,2.5-1,5.1-1,7.6c0.1,9,6.5,17.4,15.4,19.6c8.5,2.1,15.4-2.2,22.6-5.9
		c17.5-9.2,35.1-18.4,52.6-27.7c2.9-1.5,5.8-3,8.7-4.6c0.6-0.3,2.4-1,2.1-1.2c1.3,0.2,3.2,1.7,4.3,2.3c3.3,1.7,6.6,3.5,9.9,5.2
		c17.3,9.1,34.7,18.2,52,27.3c8.5,4.5,17.5,7.5,26.3,1.3c7.1-5,9.6-12.9,8.3-21.3c-0.3-1.9-0.6-3.8-1-5.6
		c-3.3-19.3-6.6-38.5-9.9-57.8c-0.6-3.6-1.2-7.3-1.9-10.9c-0.2-1.1-0.6-2.5-0.8-3.7c0.1-0.1,0.3-0.5,0.6-0.7c0.6-0.3,1.1-1,1.5-1.5
		c2.3-2.2,4.6-4.5,6.9-6.7c14.2-13.8,28.4-27.7,42.6-41.5c5.4-5.2,11.1-9.9,12.2-17.9C512.7,324.2,503.9,314.7,492.4,313.1z
		 M359.7,237.9c-0.06,0.12-0.15,0.24-0.2,0.29C359.51,238,359.6,237.9,359.7,237.9z M228.5,333.5
		C228.8,333.8,228.5,333.8,228.5,333.5L228.5,333.5z M441.2,487.8c-0.2,0,0-0.2,0.2-0.3C441.3,487.7,441.2,487.8,441.2,487.8z
		 M491.02,333.95c-0.36,0.2-0.65,0.47-0.92,0.75c-1.7,1.8-3.6,3.5-5.4,5.3c-6.8,6.6-13.5,13.2-20.3,19.8c-7.2,7-14.3,14-21.5,21
		c-3.5,3.4-7.2,6.6-10.4,10.2c-6.5,7.6-4.9,16-3.4,24.8c1.5,8.9,3.1,17.9,4.6,26.8c1.7,9.9,3.4,19.9,5.1,29.8
		c0.8,4.8,2.1,9.7,2.6,14.5c0,0.1,0,0.3,0,0.4c-0.1,0.1-0.2,0.1-0.4,0.3c0,0-0.1,0-0.1,0.1c-1.7-0.5-3.4-1.8-5-2.6
		c-7.8-4.1-15.6-8.2-23.4-12.3c-14.1-7.4-28-15.3-42.4-22.3c-8.8-4.3-16.4-2.1-24.3,2.1c-7.4,3.9-14.8,7.8-22.1,11.6
		c-9.2,4.9-18.5,9.7-27.7,14.6c-5.3,2.8-10.8,6.6-16.5,8.7c-0.2,0.1-0.7,0.2-0.5,0.2c0.8-0.2,0.5,0.8-0.2-0.1c0-0.1-0.1-0.3-0.2-0.4
		c0.02-0.12,0.04-0.22,0.06-0.34c-0.03,0.05-0.06,0.12-0.06,0.24c0-0.16,0.01-0.24,0.06-0.27c0.16-0.85,0.26-1.66,0.44-2.53
		c1.4-7.9,2.7-15.8,4.1-23.7c2.9-16.9,6-33.8,8.7-50.7c1.4-8.7-1-15.7-7.3-21.8c-5.4-5.2-10.7-10.5-16.1-15.7
		c-12.7-12.4-25.4-24.8-38.1-37.2c-0.4-0.4-0.9-0.9-1.3-1.3l-0.1-0.1c0.3,0.2,0-0.2-0.3-0.5c0.1-0.1,0.2-0.2,0.2-0.3
		c0.3-0.1,0.8-0.2,0.8-0.2c0.5-0.1,1.1-0.2,1.6-0.3c6.4-1,12.9-1.9,19.3-2.8c18.4-2.7,36.8-5.3,55.2-8c7.6-1.1,14.3-4.1,18.1-11.4
		c2.8-5.4,5.4-10.9,8.1-16.3c8.3-16.9,16.7-33.8,25-50.7c0.7-1.5,1.4-3,2.2-4.4c0.2-0.4,0.2-0.5,0.6-1c0.3,0.1,0.9,0.3,0.3,0
		c0.02,0,0.05,0,0.1,0c-0.07,0-0.16-0.01-0.26-0.05c-0.01-0.01-0.04-0.02-0.04-0.05c0.3-0.1,0.6,0.1,0.4,0.1c0.1,0-0.1-0.1,0.5,0.9
		c6.5,13.2,13,26.4,19.5,39.6c4.1,8.4,8.3,16.7,12.4,25.1c3.5,7.1,6.5,13.9,14.7,16.9c4.7,1.7,10.1,1.9,15,2.6
		c9.8,1.4,19.7,2.9,29.5,4.3c9.5,1.4,18.9,2.7,28.4,4.1c2.6,0.4,5.3,0.7,7.9,1.1c0.5,0.1,1,0.1,1.4,0.2c0.4,0.1,1.8,0.2,1.2,0.2
		c-0.3,0,0,0.2,0.4,0.3c0,0.1,0,0.3,0.1,0.3C491.16,333.71,491.02,333.92,491.02,333.95z" fill="#435e55" style=""></path>
</g>
<desc>Created with Snap</desc><defs></defs></g></g></g><g transform="matrix(1,0,0,1,1315.0957,0)"><path d="M52 190Q52 308 154 380Q235 437 349 449Q355 449 377 449Q399 449 436 436Q518 408 548 337Q560 309 560 289Q560 270 559 262Q559 137 464 65Q376 -1 244 -1Q149 -1 100 43Q52 87 52 190ZM121 166Q121 104 154 82Q179 66 238 66Q297 66 342 75Q387 84 422 106Q497 154 497 255Q497 315 465 353Q430 394 373 394Q334 387 294 379Q255 371 220 348Q144 299 121 166Z" fill="#435e55" style=""></path></g><g transform="matrix(1,0,0,1,1891.0957,0)"><path d="M518 365Q476 395 410 395Q348 395 295 372Q195 330 158 264Q142 234 142 200Q142 194 142 166Q142 139 152 92Q162 46 162 -2Q141 -3 128 -7Q115 -11 106 -11Q97 -11 90 -3Q84 5 76 28Q75 34 72 62Q69 90 64 130Q60 170 54 217Q49 265 44 311Q33 411 27 458Q27 482 62 482Q83 482 95 464Q107 447 114 424Q121 402 123 380Q126 358 128 349Q260 467 456 467Q478 467 502 466Q508 467 517 467Q526 467 535 455Q546 441 546 421Q546 371 518 365Z" fill="#435e55" style=""></path></g><g transform="matrix(1,0,0,1,2456.0957,0)"><path d="M54 470L117 470Q130 283 139 37Q133 6 91 6Q80 6 68 10Q57 15 54 23L54 470ZM24 606Q24 641 65 641Q92 641 109 629Q112 618 112 607Q112 597 104 587Q96 577 80 577Q64 577 48 584Q32 592 24 606Z" fill="#435e55" style=""></path></g><g transform="matrix(1,0,0,1,2611.0957,0)"><path d="M369 258Q479 258 479 202Q479 160 418 104Q327 21 173 -29Q166 -29 157 -15Q149 -1 144 6Q140 14 138 16Q253 54 327 108Q377 144 377 167Q377 190 318 190Q259 190 145 162Q93 164 55 199Q22 230 22 261Q22 293 40 319Q58 346 88 369Q118 392 158 411Q256 458 361 458Q392 458 421 452Q445 452 449 431Q453 410 453 362Q394 389 320 389Q228 389 168 352Q106 316 104 258Q104 230 145 230L218 238Q312 258 369 258Z" fill="#435e55" style=""></path></g><g transform="matrix(1,0,0,1,3125.0957,0)"><path d="M497 14Q488 -3 450 -3Q413 -3 413 24Q413 142 408 186Q399 283 370 290Q298 304 252 304Q207 304 177 276Q148 249 132 185Q117 122 110 7L33 7Q35 64 35 113Q35 162 33 229Q31 297 28 377Q23 469 23 532Q23 596 31 649Q41 668 60 668Q83 668 96 651Q109 635 110 622L105 457Q105 364 114 318Q204 378 300 378Q331 378 366 373Q441 334 464 290Q475 267 478 241Q481 215 482 182Q488 68 497 14Z" fill="#435e55" style=""></path></g></g></g></g></svg>